<?xml version="1.0" encoding="utf-8"?>
<svg width="512" height="512" viewBox="0 0 512 512" xmlns="http://www.w3.org/2000/svg"
     xmlns:xlink="http://www.w3.org/1999/xlink">
    <defs>

      <svg xmlns="http://www.w3.org/2000/svg" width="2500" height="423" viewBox="0 0 175.748 29.771" id="svg-1">
        <path fill="#fff22d" d="M0 0h175.748v29.771H0V0z"/><path d="M8.187 22.948l2.326-1.55 2.326 1.55-4.652 3.102v-3.102zm22.33-16.125l-2.326 1.55-2.326-1.55 4.652-3.103v3.103zm0 11.783L19.352 26.05 8.187 18.606l13.259-8.838 2.326 1.551-10.7 7.133 6.513 4.342 3.023-2.016-2.326-1.551 5.583-3.723 4.652 3.102zm-22.33-7.441l11.166-7.442 11.165 7.442-13.259 8.838-2.326-1.551 10.7-7.133-6.513-4.341-3.024 2.016 2.326 1.55-5.583 3.723-4.652-3.102zM34.982 17.47v4.854h6.088c1.459 0 5.085-.165 5.085-3.938 0-.32-.016-.628-.053-.917l-3.78.001c.019.146.027.302.027.464 0 2.081-1.724 2.103-2.49 2.103h-1.13v-2.564h-3.747v-.003zm12.743 0l-1.487 4.853H49.3l.765-2.698h3.286l.746 2.698h3.248l-1.458-4.853h-3.091l.069.28h-2.352l.063-.28h-2.851zm10.337 0v4.853h2.628V17.47h-2.628zm3.994 0l2.025 4.853h3.653V17.47h-2.632v.548l-.229-.548h-2.817zm6.932 0c.034 3.044.421 5.211 4.625 5.211 2.69 0 4.263-1.066 4.263-4.389h-3.061c-.038.98-.054 2.529-1.202 2.529-1.149 0-1.432-.612-1.482-3.354l-3.143.003zm9.806 0c.065 2.786.583 5.211 4.731 5.211s4.667-2.425 4.731-5.209l-3.177-.002c-.06 2.326-.357 3.353-1.555 3.353-1.197 0-1.496-1.025-1.554-3.354l-3.176.001zm12.84 0v4.853h4.629c3.905 0 4.463-2.785 4.528-4.851l-3.142-.002c-.09 2.146-.487 2.994-1.754 2.994h-1.178V17.47h-3.083zm10.321 0c.062 2.781.571 5.211 4.735 5.211 4.162 0 4.67-2.43 4.734-5.213l-3.18.002c-.059 2.332-.354 3.359-1.555 3.359-1.203 0-1.5-1.027-1.557-3.359h-3.177zm12.683 0v4.854h6.09c1.459 0 5.084-.165 5.084-3.938 0-.321-.017-.628-.051-.917l-3.729-.001c.017.154.025.315.025.485 0 2.081-1.406 2.104-2.029 2.104h-1.639v-2.589l-3.751.002zm12.198 0v4.852h3.177V17.47h-3.177zm4.476 0l2.11 4.852h5.078l.767-2.699h3.285l.745 2.699 7.38.001c2.038 0 4.104-.271 4.104-3.426a2.94 2.94 0 0 0-.338-1.423l-4.598-.004c.944.446 1.676.901 1.676 1.622 0 .826-.443 1.385-1.349 1.385l-4.185-.001-.901-3.006h-3.092l.071.287h-2.354l.064-.287H136.9l-1.162 3.757-1.699-3.757h-2.727zm24.619 0v4.853h3.1V17.47h-3.1zm4.916 0v4.853h6.717V20.48h-3.617v-3.011l-3.1.001z" fill="#2360a5"/><path d="M38.731 17.47v-1.637l.748-.022h.478c1.596 0 2.234.617 2.367 1.659h3.78c-.193-1.545-.97-2.595-3.026-2.854 1.87-.371 2.805-1.607 2.805-3.317 0-3.174-2.166-3.854-4.788-3.854h-6.112v10.027h3.748v-.002zm11.845 0l1.056-4.702 1.163 4.702h3.091l-2.201-7.326h-3.714l-2.246 7.326h2.851zm10.115 0V14.2l1.365 3.271h2.817l-3.068-7.326h-3.743v7.326h2.629v-.001zm7.043 0v-7.326h-2.632v7.326h2.632zm4.397 0a73.658 73.658 0 0 1-.009-1.208c0-3.902.298-4.56 1.433-4.56.817 0 1.184.619 1.184 2.271h3.042c.114-2.667-1.367-4.131-4.3-4.131-4.368 0-4.495 2.775-4.495 6.418 0 .414-.001.817.002 1.205l3.143.005zm9.84 0c-.01-.369-.013-.771-.013-1.208 0-3.183.18-4.56 1.567-4.56 1.388 0 1.567 1.376 1.567 4.56 0 .437-.003.839-.013 1.206l3.177.002c.009-.396.009-.802.009-1.208 0-3.286 0-6.418-4.74-6.418s-4.74 3.132-4.74 6.418c0 .406 0 .812.009 1.21l3.177-.002zm12.749 0v-5.466h1.26c1.692 0 1.692 1.979 1.692 4.231 0 .451-.008.861-.021 1.232l3.141.002c.018-.5.006-.958.006-1.324 0-3.808-.697-6.041-4.422-6.041h-4.742v7.365h3.086v.001zm10.416 0a47.783 47.783 0 0 1-.013-1.181c0-3.169.181-4.54 1.567-4.54 1.388 0 1.566 1.371 1.566 4.54 0 .426-.002.818-.012 1.181h3.18c.008-.39.008-.783.008-1.181 0-3.271 0-6.391-4.742-6.391-4.744 0-4.744 3.119-4.744 6.391 0 .396 0 .791.009 1.179l3.181.002zm13.256 0v-1.613l.944-.023h.771c1.291 0 1.812.61 1.926 1.641l3.729-.002c-.193-1.544-.974-2.594-3.027-2.854 1.869-.371 2.805-1.608 2.805-3.318 0-3.173-2.166-3.854-4.789-3.854h-6.111V17.47h3.752zm11.621 0v-5.455h1.053c.896 0 1.674.652 1.674 1.851 0 1.015-.508 1.849-1.324 1.796l-.885.013.781 1.798h2.729l-.455-1.01c1.58-.294 2.207-1.295 2.213-3.132.005-2.074-1.231-3.188-3.153-3.188h-5.81v7.329h3.177v-.002zm9.763 0l1.058-4.695 1.16 4.695h3.092l-2.198-7.328h-3.716l-2.271 7.328h2.875zm14.664 0c-1.162-2.167-4.938-2.209-4.938-4.163 0-.844.515-1.299 1.384-1.299h2.823v-1.875h-3.97c-3.262 0-4.067 1.473-4.067 3.378 0 2.346 2.442 3.139 4.173 3.957l4.595.002zm4.588 0v-7.326h-3.1v7.326h3.1zm4.916 0v-7.326h-3.1v7.326h3.1zM38.731 13.535V9.731h1.345c1.222 0 2.084.804 2.084 1.896 0 1.443-1.102 1.896-1.892 1.896h-1.261l-.276.012zm79.661.023V9.754h1.813c.993 0 1.696.805 1.696 1.896 0 1.442-.897 1.896-1.541 1.896h-1.026l-.942.012z" fill="#2360a5"/>
    </svg>
    <svg viewBox="0 0 128 128" height="100%" width="100%" pointer-events="none" display="block" id="svg-10" >
        <path fill="#FFCC80" d="M41.6 123.8s0 .1-.1.1l.3-.4c-.1.2-.1.2-.2.3z"/>
        <path fill="#8C9EFF" d="M0 0h128v128H0z"/>
        <path fill="#C2C2C2"
              d="M34.8 79.5c-2.5-3.4-5.9-6.4-6.9-10.3v-.1l-.6-.5c-.3-1.2.6-2 .5-3l-2.4-1h-6.9s0 17 17.4 17.3c-.9-.9-.7-1.8-1.1-2.4z"/>
        <path fill="#CFD8DC"
              d="M21.9 64.2l-.1-.3c0-.1 0-.2-.1-.4v-1l.1-.3c.1-.1.1-.2.1-.3.1-.1.1-.2.1-.2.2-.4.1-.8-.2-1.1-.4-.4-1-.4-1.3 0l-.2.2-.2.2c-.1.1-.2.2-.3.4l-.3.6-.3.6c-.1.2-.2.4-.2.7 0 .2-.1.5-.1.8v.5h3c.2-.2.1-.3 0-.4z"/>
        <path fill="#eee"
              d="M116.5 65.2c.1.1.2.1.2.2 0-.1-.1-.2-.2-.2zm8.2 6.1l.6.3c-.3-.1-.4-.2-.6-.3zm1.7 1l.6.3c-.2 0-.4-.1-.6-.3zm-3.4-2.1l.5.3c-.2 0-.4-.2-.5-.3zm-8-6.5zm-.1 64.1c-12-17.2-7.6-52-3.1-67.6v-.1c-3.5-4.2-7.8-11.7-10.2-18.7-1.7-5-4-8.8-6.4-11.8l-1.6-2-10.7 11.8c-1.5 2.1-3.3 1.8-4.1-.6l-7.1-17.3c-.3-.9-.3-1.9 0-2.7.3-1.1-.1-2.1.7-3l-2-.1c-1.3 0-2.5.1-3.7.3-1.7-.3-3.4-.5-5.1-.5-11.9 0-21.9 8.1-24.8 19.2-.5 1.8-.7 3.7-.8 5.6-1.2 3.6-4.2 7.7-11.5 8.4 1.3.4 2.2 1.9 2 3.6l-.5 2.8c-.3 2-1.2 2.4-2.2.9l1.6 8.6.2.9c.1 1.1.3 2.2.6 3.4 1 4 3.2 8.2 7.8 10.9.3.6 1 1.3 2 2.1 8.2 6.7 36 20.7 27.8 46.1h51.3c0-.1-.1-.1-.2-.2zM34.5 59.3c.5 0 1 .4 1 1 0 .5-.4 1-1 1-.5 0-1-.4-1-1s.4-1 1-1zm7.4 3.9c.5 0 1 .4 1 1 0 .5-.4 1-1 1-.5 0-1-.4-1-1 0-.5.5-1 1-1zm-1-8.5c-.5 0-1-.4-1-1 0-.5.4-1 1-1 .5 0 1 .4 1 1s-.5 1-1 1zm3.9-10.9c-.9 0-1.6-.7-1.6-1.6 0-.9.7-1.6 1.6-1.6.9 0 1.6.7 1.6 1.6 0 .9-.7 1.6-1.6 1.6zm73.3 22.7c.1.1.2.2.4.3-.2-.1-.3-.2-.4-.3zm3.2 2.6l.5.3-.5-.3zm-1.6-1.3l.4.3c-.1 0-.3-.1-.4-.3z"/>
        <path fill="#C2C2C2"
              d="M114.9 127.8l.2.2H128V73.2l-1-.6-.6-.3-1.2-.7-.6-.3-1.2-.7-.5-.3-1.2-.8-.5-.3-1.2-.9-.4-.3-1.2-1c-.1-.1-.2-.2-.4-.3l-1.3-1.2c-.1-.1-.2-.1-.2-.2l-1.5-1.5c-1.5-1.6-3-3.3-4.4-5.1-4.6 15.4-13 52.7 4.3 69.1z"/>
        <path fill="#646464"
              d="M26 55.1l.4-2.8c.2-1.8-.6-3.2-2-3.6-.3-.1-.7-.2-1.1-.1-2 .1-2.7 1.9-1.6 3.8l1.8 3.3c.1.2.2.3.3.4 1 1.3 1.9 1 2.2-1z"/>
        <circle fill="#444" cx="44.8" cy="42.2" r="2"/>
        <circle fill="#CFD8DC" cx="34.5" cy="60.3" r="1"/>
        <circle fill="#CFD8DC" cx="40.9" cy="53.7" r="1"/>
        <circle fill="#CFD8DC" cx="41.9" cy="64.2" r="1"/>
        <path fill="#646464"
              d="M70.7 18.8c-.3.8-.3 1.8 0 2.7l8.1 19.3c.8 2.5 2.6 2.7 4.1.6l12.3-11.8 1.4-1.3c.3-.4.5-.9.6-1.3.4-1.2.3-2.4-.1-3.6-1.1-4.3-5.6-8.9-11.2-10.3-5.6-1.4-10.9-.2-13.6 2.7-.8.8-1.3 1.8-1.6 3z"/>
    </svg>
    <svg viewBox="0 0 128 128" height="100%" width="100%" pointer-events="none" display="block" id="svg-11" >
        <path fill="#FFCC80" d="M41.6 123.8s0 .1-.1.1l.3-.4c-.1.2-.1.2-.2.3z"/>
        <path fill="#FFFF8D" d="M0 0h128v128H0z"/>
        <path fill="#F4B400"
              d="M110.3 91.4l-.5-.5c.1.2.3.4.5.5zm-4.4-4.5l.4.5c-.1-.2-.3-.4-.4-.5zm9.8 9.5c.2.2.4.4.7.6-.3-.2-.5-.4-.7-.6zM104.3 85c.2.2.3.4.5.5-.2-.1-.4-.3-.5-.5zm3.7 4.1zm16.9 14l.9.6c-.3-.3-.6-.4-.9-.6zm-28.5-29l.1.2c-.1 0-.1-.1-.1-.2zm15.2 18.6c.2.2.4.4.7.6l-.7-.6zm10 8.2l.9.6-.9-.6zm-18.8-17.7l.4.5c-.1-.1-.3-.3-.4-.5zm-1.4-1.7c.1.1.1.2.2.2-.1 0-.1-.1-.2-.2zm12.2 13l.7.6c-.2-.1-.5-.4-.7-.6zm-15-16.8c.1.1.1.2.2.2l-.2-.2zm-1.2-1.8l.2.3c0-.1-.1-.2-.2-.3zm28.4 27.7l-.9-.6-2.4-1.5-.9-.6c-1-.7-2.1-1.4-3.1-2.2l-2.2-1.8c-.2-.2-.4-.4-.7-.6-.5-.4-1-.8-1.4-1.2l-.7-.6-1.3-1.2-.7-.6c-.5-.4-.9-.9-1.3-1.3l-.5-.5-1.8-1.8c-.6-.6-1.1-1.2-1.6-1.8l-.4-.5-1.2-1.3c-.2-.2-.3-.4-.5-.5l-1.1-1.3-.4-.5-1.2-1.5c-.1-.1-.1-.2-.2-.2-.9-1.2-1.8-2.4-2.6-3.6-.1-.1-.1-.2-.2-.2l-1-1.5-.2-.3c-.3-.5-.6-1-1-1.5l-.1-.2c-1.1-1.8-2-3.5-2.9-5.2-3.1-6-4.8-11.4-5.7-15.9-.2-.9-.3-1.7-.4-2.6L85 13l-8 10.2c-3.7-2.6-8.2-4.2-13.1-4.2s-9.4 1.5-13.1 4.1L42.7 13l-1.8 29-7.7 71.8h.2c-.1 1-.2 2-.2 3 0 4 .8 7.7 2.1 11.2H128v-23.1c-.7-.4-1.5-.8-2.2-1.3zM55 38.4c-.9 0-1.6-.7-1.6-1.6 0-.9.7-1.6 1.6-1.6.9 0 1.6.7 1.6 1.6 0 .8-.7 1.6-1.6 1.6zm17.9 0c-.9 0-1.6-.7-1.6-1.6 0-.9.7-1.6 1.6-1.6.9 0 1.6.7 1.6 1.6 0 .8-.7 1.6-1.6 1.6z"/>
        <circle fill="#444" cx="72.9" cy="36.7" r="2"/>
        <circle fill="#444" cx="55" cy="36.7" r="2"/>
        <path fill="#444" d="M61.6 39.5c-.5 1-.1 1.7 1 1.7h4.6c1.1 0 1.6-.8 1-1.7l-2.3-4c-.5-1-1.4-1-2 0l-2.3 4z"/>
        <path fill="#FF5722"
              d="M92.5 102.7c8.3 11.3 23.6 14.4 35.5 7.8v-5.6l-2.2-1.3-.9-.6-2.4-1.5-.9-.6c-1-.7-2.1-1.4-3.1-2.2l-2.2-1.8c-.2-.2-.4-.4-.7-.6-.5-.4-1-.8-1.4-1.2l-.7-.6-1.3-1.2-.7-.6c-.5-.4-.9-.9-1.3-1.3l-.5-.5-1.8-1.8c-.6-.6-1.1-1.2-1.6-1.8l-.4-.5-1.2-1.3c-.2-.2-.3-.4-.5-.5l-1.1-1.3-.4-.5-1.2-1.5c-.1-.1-.1-.2-.2-.2-.9-1.2-1.8-2.4-2.6-3.6-.1-.1-.1-.2-.2-.2l-1-1.5-.2-.3c-.3-.5-.6-1-1-1.5l-.1-.2c-1.1-1.8-2-3.5-2.9-5.2-7.7 9.4-8.4 23.4-.8 33.7z"/>
    </svg>
    <svg viewBox="0 0 128 128" height="100%" width="100%" pointer-events="none" display="block" id="svg-12"  >
        <path fill="#B9F6CA" d="M0 0h128v128H0z"/>
        <path fill="#444"
              d="M50.4 75.7c-1.6-1.6-3.2-2.9-4.7-4-.9-.6-1-1.7-1.7-2.2-1.8-1-3.2-5.9-5.3-3.4l-.5.8-.4-.9c-1.3-1.2-1-.4-1.3-2.3-.5-4.2 1.2-7.2 5.1-7.8 1-.1 2-.1 2.9.2 9.5-1.8 13.7-7.4 15.2-10 4 5.7 14.3 11.4 38.3 7.8 2.8-4.7 4.5-10.2 4.5-16C102.4 20.8 88.6 7 71.6 7c-6.7 0-12.8 2.1-17.9 5.7L27.9 31C16.3 36.6 8.3 48.5 8.3 62.2c0 19.1 15.5 34.6 34.6 34.6 4.6 0 9-.9 13-2.5.2-8.4-1.4-14.5-5.5-18.6zm-5.9-21.6z"/>
        <path fill="#8D6E63"
              d="M73.7 122c6.1.5 13.4-.3 22-3.5-.1-.7-.3-1.4-.5-2.1-.3-1.3-3.8-21.4-4-28.1-.1-7.3.8-11.9 2-14.7h8.7l-2.5-10.1c-.2-2.4-.4-4.7-.7-6.6-.2-1.8-.3-2.3-.8-3.9-24 3.6-34.2-3.7-38.2-9.4-1.4 2.5-5.7 8.8-15.3 10.5-.9-.3-1.9-.3-2.9-.2-3.9.6-6.7 4.5-6.1 8.8.3 2 1.2 3.6 2.5 4.8.2.1 1.5.6 3.3 1.7.7.4 1.6.9 2.4 1.6 1.5 1.1 3.1 2.4 4.7 4 4 4.1 7.6 10.2 7.4 18.5-.1 4.9-1.6 10.6-5.1 17.2.1 0 7.3 10.2 23.1 11.5zM44.5 54.1z"/>
        <path fill="#FFCC80" d="M41.6 123.8s.1-.2.2-.3c-.1.2-.1.2-.2.3z"/>
        <circle fill="#444" cx="83.5" cy="63.1" r="2"/>
        <path fill="#0097A7"
              d="M73.7 122c-15.9-1.3-23-11.5-23-11.5-2.1 4-5.1 8.4-8.9 13.1l-.3.4c-.5.6-1.1 1.3-1.7 2-.5.6-1 1.3-1.6 2.1h59.7c-.7-3.2-1.5-6.4-2.1-9.5-8.7 3.1-16 3.9-22.1 3.4z"/>
    </svg>
    <svg viewBox="0 0 128 128" height="100%" width="100%" pointer-events="none" display="block" id="svg-13" >
        <path fill="#448AFF" d="M0 0h128v128H0z"/>
        <g fill="#00BFA5">
            <path d="M73 18.7c-4.8 0-9.7.8-14 2.3-.1.1-.2.2-.4.3l-7.3 4.6c-.6.4-1.4.4-2 .1-.3-.2-.6-.4-.8-.7l-.7-1.1c-.6-1-.3-2.2.6-2.8l7.3-4.6c.4-.2.8-.3 1.2-.3-5.5-3-23.7-10.7-33.7 10.7-11.8 25.4 11 50.2-14.4 62.6 0 0 26.2 13.7 40.9-24.8 3.7 3.2 8.8 5.8 16 7.4-.6-5.6.8-9.8-2.1-12.8-1.3-1.4-2.7-1.5-4-2.4-.7-.5-1.4-.9-2-1.3-1.5-.9-2.6-1.3-2.8-1.4-1.1-1-1.9-2.4-2.1-4.1-.5-3.6-2.2-6.9 1.1-7.4.8-.1 1.6-.1 2.4.2 8-1.5 11.6-6.7 12.8-8.9 3.4 4.8 11.7 9.8 31.9 6.8.3 1.1.6 1.2.8 2.4l.5-1.3c-.1-13-13.2-23.5-29.2-23.5zM56.1 43.2zm5.3 46.5s6 8.6 19.4 9.7c5.1.4 11.3-.3 18.6-2.9-.1-.6-.3-1.2-.4-1.7-.2-1.1-3.2-18-3.4-23.6-.2-6.2.6-10 1.6-12.4h7.3l-2.1-8.5c-.1-2-.4-3.9-.6-5.6 0-.3-.1-.7-.2-1-.2-1.1-.4-2.3-.8-3.4-20.2 3-28.5-2-31.9-6.8-1.2 2.1-4.8 7.4-12.8 8.9-.8-.2-1.6-.3-2.4-.2-3.3.5-5.6 3.8-5.1 7.4.2 1.7 1 3.1 2.1 4.1.2.1 1.3.5 2.8 1.4.6.4 1.3.8 2 1.3 1.3.9 2.6 2 4 3.4 2.9 3 5.6 7.2 6.1 12.8.5 4.5-.6 10.2-4.2 17.1zm27.5-41.2c.7 0 1.3.6 1.3 1.3s-.6 1.3-1.3 1.3-1.3-.6-1.3-1.3.6-1.3 1.3-1.3zm-32.8-5.3c.1-.1 0-.1 0 0zm-2.4 57.7l.2-.2-.2.2z"/>
            <circle cx="88.9" cy="49.8" r="2"/>
            <path d="M80.8 99.3c-13.3-1.1-19.4-9.7-19.4-9.7-1.8 3.4-4.3 7.1-7.5 11l-.3.3c-.4.5-.9 1.1-1.4 1.7-.7.9-1.6 2.1-2.8 3.7-2.3 3.2-5.4 7.8-8.8 13.5-1.4 2.4-2.9 5.1-4.4 8 0 0 0 .1-.1.1h71.3c-.6-1.6-1.3-3.2-1.7-4.8-2.2-8.6-4.6-17.9-6.5-26.8-7.2 2.8-13.3 3.5-18.4 3zM55.7 16.7l-7.3 4.6c-1 .6-1.3 1.9-.6 2.8l.7 1.1c.2.3.5.6.8.7.6.3 1.4.3 2-.1l7.3-4.6.4-.3c.7-.7.8-1.7.3-2.5l-.7-1.1c-.4-.6-1-.9-1.6-1-.5 0-1 .1-1.3.4z"/>
        </g>
        <path fill="#444"
              d="M73 18.7c-4.8 0-9.7.8-14 2.3-.1.1-.2.2-.4.3l-7.3 4.6c-.6.4-1.4.4-2 .1-.3-.2-.6-.4-.8-.7l-.7-1.1c-.6-1-.3-2.2.6-2.8l7.3-4.6c.4-.2.8-.3 1.2-.3-5.5-3-23.7-10.7-33.7 10.7-11.8 25.4 11 50.2-14.4 62.6 0 0 26.2 13.7 40.9-24.8 3.7 3.2 8.8 5.8 16 7.4-.6-5.6.8-9.8-2.1-12.8-1.3-1.4-2.7-1.5-4-2.4-.7-.5-1.4-.9-2-1.3-1.5-.9-2.6-1.3-2.8-1.4-1.1-1-1.9-2.4-2.1-4.1-.5-3.6-2.2-6.9 1.1-7.4.8-.1 1.6-.1 2.4.2 8-1.5 11.6-6.7 12.8-8.9 3.4 4.8 11.7 9.8 31.9 6.8.3 1.1.6 1.2.8 2.4l.5-1.3c-.1-13-13.2-23.5-29.2-23.5zM56.1 43.2z"/>
        <path fill="#FFE0B2"
              d="M61.4 89.7s6 8.6 19.4 9.7c5.1.4 11.3-.3 18.6-2.9-.1-.6-.3-1.2-.4-1.7-.2-1.1-3.2-18-3.4-23.6-.2-6.2.6-10 1.6-12.4h7.3l-2.1-8.5c-.1-2-.4-3.9-.6-5.6 0-.3-.1-.7-.2-1-.2-1.1-.4-2.3-.8-3.4-20.2 3-28.5-2-31.9-6.8-1.2 2.1-4.8 7.4-12.8 8.9-.8-.2-1.6-.3-2.4-.2-3.3.5-5.6 3.8-5.1 7.4.2 1.7 1 3.1 2.1 4.1.2.1 1.3.5 2.8 1.4.6.4 1.3.8 2 1.3 1.3.9 2.6 2 4 3.4 2.9 3 5.6 7.2 6.1 12.8.5 4.5-.6 10.2-4.2 17.1zm27.5-41.2c.7 0 1.3.6 1.3 1.3s-.6 1.3-1.3 1.3-1.3-.6-1.3-1.3.6-1.3 1.3-1.3zm-32.8-5.3c.1-.1 0-.1 0 0z"/>
        <path fill="#FFCC80" d="M53.7 100.9l.2-.2-.2.2z"/>
        <circle fill="#444" cx="88.9" cy="49.8" r="2"/>
        <path fill="#FF5722"
              d="M80.8 99.3c-13.3-1.1-19.4-9.7-19.4-9.7-1.8 3.4-4.3 7.1-7.5 11l-.3.3c-.4.5-.9 1.1-1.4 1.7-.7.9-1.6 2.1-2.8 3.7-2.3 3.2-5.4 7.8-8.8 13.5-1.4 2.4-2.9 5.1-4.4 8 0 0 0 .1-.1.1h71.3c-.6-1.6-1.3-3.2-1.7-4.8-2.2-8.6-4.6-17.9-6.5-26.8-7.2 2.8-13.3 3.5-18.4 3z"/>
        <path fill="#00BFA5"
              d="M55.7 16.7l-7.3 4.6c-1 .6-1.3 1.9-.6 2.8l.7 1.1c.2.3.5.6.8.7.6.3 1.4.3 2-.1l7.3-4.6.4-.3c.7-.7.8-1.7.3-2.5l-.7-1.1c-.4-.6-1-.9-1.6-1-.5 0-1 .1-1.3.4z"/>
    </svg>
    <svg viewBox="0 0 128 128" height="100%" width="100%" pointer-events="none" display="block" id="svg-14"  >
        <path fill="#B388FF" d="M0 0h128v128H0z"/>
        <path fill="#1C3AA9" d="M70.5 128h12.4c-5.1-15.8-6.6-23.9-7.2-28.4-1.9 8.8-4 19.3-5.2 28.4z"/>
        <path d="M92.9 32.8l-.2.1c.1 0 .2 0 .2-.1zm-1.2.5l-.7.1.7-.1zm.6-.2l-.3.1.3-.1zm-52 .3c-.2 0-.5 0-.7-.1.3 0 .5.1.7.1zm-.9-.2l-.5-.1.5.1zm-.7-.2c-.2-.1-.4-.2-.5-.3.1.1.3.2.5.3z"
              fill="none"/>
        <path fill="#2A56C6" d="M82.9 90.8v.2-.2z"/>
        <path fill="#FFE0B2"
              d="M31.2 47.2zM45.8 93c5.8 5.5 13.6 9.1 22.3 9.3 2.8-.1 5.4-.5 8-1.2l.8-3.8c4.3-19.3 9.7-37.4 15-52.9h6.9L94 36.2c-.2-1.2-.4-2.5-.7-3.6l-.4.3-.2.1-.4.2-.3.1-.3.1-.7.1H40.3c-.2 0-.5 0-.7-.1-.1 0-.1 0-.2-.1l-.5-.1-.2-.1c-.2-.1-.4-.2-.5-.3 0 0-.1 0-.1-.1-.1.2-.1.4-.1.7-1-.3-2-.4-3-.3-4.1.6-6.9 4.7-6.3 9.1.3 2 1.2 3.8 2.6 5 .3.1 1.6.7 3.4 1.7.8.4 1.6 1 2.5 1.6 1.5 1.1 3.2 2.5 4.9 4.1 0 0 16.3 12.3 3.4 38 .1.2.2.3.3.4zm34.1-51.9c.8 0 1.5.7 1.5 1.6 0 .9-.7 1.6-1.5 1.6s-1.5-.7-1.5-1.6.6-1.6 1.5-1.6z"/>
        <path fill="#2A56C6"
              d="M68.1 102.3c-8.7-.2-16.5-3.8-22.3-9.3-.1-.1-.2-.2-.4-.3-3-.2-7.6.2-10.8.6-4.6.6-9.6 1.3-15 2.4-3.6.7-8.1 1.9-19.7 5.3v27h71.4c1.3-9.1 2.9-18.1 4.7-26.9-2.5.7-5.1 1.1-7.9 1.2z"/>
        <path fill="#6D4C41" d="M61.8 9.8c-7.3 1.1-13.6 5.1-17.9 10.8h43.7C81.5 12.7 71.9 8.3 61.8 9.8z"/>
        <path fill="#E65100"
              d="M38.7 33l.2.1c.2.1.3.1.5.1.1 0 .1 0 .2.1l.7.1H91c.2 0 .5 0 .7-.1l.3-.1.3-.1c.1 0 .3-.1.4-.2l.2-.1.4-.3c1-.7 1.6-1.9 1.6-3.2v-4.8c0-2.2-1.8-4-4-4H40.4c-2.2 0-4 1.8-4 4v4.8c0 1.4.7 2.6 1.8 3.3 0 0 .1 0 .1.1s.2.2.4.3z"/>
        <ellipse fill="#444" cx="79.9" cy="42.7" rx="2" ry="2.2"/>
    </svg>

        <svg xmlns="http://www.w3.org/2000/svg" width="2500" height="2500" viewBox="0 0 192.756 192.756" id="svg-15">
          <g fill-rule="evenodd" clip-rule="evenodd">
            <path fill="#fff" d="M0 0h192.756v192.756H0V0z"/>
            <path d="M40.673 8.504l111.673.066c17.529 0 31.973 14.443 31.906 32.038V152.28c0 17.596-14.443 31.973-32.037 31.973l-111.739-.066c-17.595-.064-31.972-14.441-31.972-32.037l.131-111.674c0-17.594 14.378-32.038 32.038-31.972z" fill="#33348e"/>
            <path d="M159.502 88.664h-12.736l-5.252 9.979h8.928l9.06-9.979zm8.469 16.217h-12.408v26.785c0 8.207-5.516 10.57-9.584 10.57-3.875 0-8.143-1.445-8.076-8.602V104.88h-12.408l-.066 30.527c0 11.816 6.764 17.068 16.086 17.068 6.498.066 11.555-2.758 14.377-7.746h.131v6.5h11.949v-46.348h-.001zM115.777 117.156c0-11.488-12.078-13.523-18.775-13.523-9.651 0-19.696 2.035-21.206 16.215H87.81c.394-2.691 1.51-6.434 7.681-6.434 3.217 0 8.208.264 8.208 5.385 0 2.625-2.43 3.414-4.4 3.676l-11.16 1.641c-7.944 1.117-13.852 5.777-13.852 14.838 0 9.584 7.353 13.523 14.377 13.523 8.535 0 12.539-3.873 15.297-6.695.262 2.561.459 3.217 1.182 5.449l10.701-.066c0-5.121-.066-8.863-.066-8.928v-25.081h-.001zM62.863 88.664H50.455v16.15h-6.434v8.732h6.368v28.164c0 5.973 1.904 10.045 12.671 10.045h1.642c1.969 0 3.938-.133 5.843-.197V142.3c-.854.066-1.772.197-2.561.197-5.055 0-5.187-1.051-5.187-3.809l.066-25.143h7.747v-8.732h-7.747V88.664zM38.31 88.598H24.917l-.066 62.566h13.393l.066-62.566z" fill="#fff22d"/>
            <path d="M103.699 134.619v-5.973c-1.248.984-3.35 1.771-8.47 2.494-4.661.787-8.469 1.969-8.469 7.025 0 4.201 3.414 5.58 5.777 5.58 5.516.001 11.162-3.479 11.162-9.126z" fill="#33348e"/></g></svg>



          <svg xmlns="http://www.w3.org/2000/svg" width="2500" height="2500" viewBox="0 0 192.756 192.756" id="svg-16">
            <g fill-rule="evenodd" clip-rule="evenodd">
              <path fill="#fff" d="M0 0h192.756v192.756H0V0z"/>
              <path d="M64.355 96.188h8.851c3.581 0 6.253 1.815 6.253 5.674 0 2.799-1.236 4.387-3.379 5.219v.051c2.546.605 3.883 2.193 3.883 4.917 0 5.346-4.06 6.455-7.489 6.455h-8.119V96.188zm5.144 18.105h1.513c1.866 0 3.807-.328 3.807-2.598 0-2.445-1.992-2.647-3.756-2.647H69.5v5.245h-.001zm0-9.279h1.412c1.689 0 3.429-.479 3.429-2.37 0-2.042-1.665-2.219-3.354-2.219h-1.487v4.589zM91.713 106.477c-.555-.202-1.109-.202-1.689-.202-2.294 0-3.605 1.941-3.605 5.194v7.035h-4.942v-16.642h4.514v3.076h.05c.857-2.118 2.093-3.48 4.236-3.48.58 0 1.185.102 1.689.202l-.253 4.817zM101.471 118.504v-2.194c-.907 1.689-2.521 2.598-4.387 2.598-2.824 0-5.346-1.639-5.346-5.27 0-5.068 4.74-5.674 7.388-5.674.782 0 1.665.101 2.295.227-.025-2.27-1.487-2.874-3.278-2.874-1.588 0-3.151.353-4.539 1.235l-.076-3.908c1.766-.832 3.581-1.186 5.699-1.186 3.656 0 6.833 1.841 6.833 6.935v6.178c0 1.312.051 2.622.277 3.934h-4.866v-.001zm-3.101-3.556c1.361 0 2.445-.58 3.101-1.739v-2.194a28.025 28.025 0 0 0-2.143-.101c-1.664 0-3.001.605-3.001 2.219 0 1.135.883 1.815 2.043 1.815zM123.686 118.504h-4.589v-2.496h-.051c-.958 1.841-2.823 2.899-4.917 2.899-4.286 0-6.556-4.11-6.556-9.052 0-4.06 2.169-8.397 6.128-8.397 1.991 0 3.655.631 4.941 2.547h.051v-7.892h4.992v22.391h.001zm-7.994-4.034c1.64 0 3.026-1.815 3.026-4.262 0-2.496-1.211-4.312-3.026-4.312-1.941 0-3.001 1.916-3.001 4.11 0 2.648 1.135 4.464 3.001 4.464zM130.443 111.847c.277 2.32 1.79 3.203 4.211 3.203 1.361 0 2.899-.354 4.387-1.286v4.085c-1.613.73-3.429 1.059-5.27 1.059-4.74 0-8.346-3.253-8.346-8.75 0-5.496 3.228-8.699 7.69-8.699 5.32 0 7.236 4.388 7.236 9.33v1.059h-9.908v-.001zm5.447-3.227c0-1.942-.757-3.506-2.748-3.506-1.79 0-2.647 1.563-2.749 3.506h5.497zM141.967 113.89c1.159.58 2.874 1.16 4.664 1.16 1.009 0 2.018-.177 2.018-1.337 0-2.823-7.061-.832-7.061-6.833 0-3.833 3.253-5.422 6.127-5.422 1.69 0 3.43.228 5.019.984l-.378 3.983c-1.034-.731-2.623-1.109-3.858-1.109-1.059 0-2.269.227-2.269 1.16 0 2.571 7.362.529 7.362 6.858 0 4.438-3.43 5.572-6.683 5.572-2.243 0-3.757-.277-5.219-.807l.278-4.209zM166.576 106.628c-.907-.631-1.815-.934-3-.934-2.169 0-3.808 1.74-3.808 4.59 0 2.646 1.916 4.387 4.084 4.387 1.11 0 2.245-.277 3.076-.807l.102 4.287a11.677 11.677 0 0 1-4.034.756c-4.74 0-8.347-3.202-8.347-8.725 0-5.521 3.606-8.725 8.347-8.725 1.487 0 2.799.303 3.933.934l-.353 4.237zM167.56 110.183c0-5.521 3.605-8.725 8.347-8.725 4.74 0 8.346 3.203 8.346 8.725s-3.605 8.725-8.346 8.725c-4.742-.001-8.347-3.203-8.347-8.725zm11.573 0c0-2.471-.933-4.689-3.227-4.689-2.27 0-3.203 2.219-3.203 4.689 0 2.472.934 4.69 3.203 4.69 2.294 0 3.227-2.219 3.227-4.69z" fill="#5b5c5e"/>
              <path fill="#fff" d="M8.504 118.504V73.848h44.681v44.656H8.504z"/>
              <path d="M34.45 100.476h-3.707v18.028h-2.345v-12.078H26.76v12.078H8.504V73.848h44.681v44.656H34.45v-18.028zm-6.858-14.777c-2.27 0-4.438.176-6.506.504 2.799-3.479 7.035-5.698 11.775-5.698 3.833 0 7.338 1.462 10.011 3.858-2.799-3.354-6.96-5.497-11.599-5.497-5.699 0-10.691 3.228-13.339 7.994-2.748.706-5.169 1.689-7.161 2.899 1.992-.883 4.261-1.588 6.757-2.093-1.034 2.118-1.588 4.513-1.588 7.035 0 4.766 2.042 9.052 5.32 11.952-2.345-2.774-3.732-6.38-3.732-10.313 0-3.404 1.034-6.53 2.774-9.103a44.24 44.24 0 0 1 4.892-.277c12.28 0 22.239 5.27 22.239 11.75 0 2.95-2.042 5.623-5.396 7.69 4.766-2.144 7.792-5.37 7.792-8.951 0-6.505-9.96-11.75-22.239-11.75z" fill="#c23c40"/></g></svg>


        <svg xmlns="http://www.w3.org/2000/svg" width="2500" height="2500" viewBox="0 0 192.756 192.756" id="svg-2">
          <g fill-rule="evenodd" clip-rule="evenodd">
          <path fill="#fff" d="M0 0h192.756v192.756H0V0z"/>
          <path d="M64.466 90.115l-4.258 10.61h5.891L64.485 90.07l-.019.045zM41.91 114.469l17.467-35.957h13.202l7.366 35.957H68.35l-.852-4.791H56.25l-2.588 4.791H41.91zm43.522 0l5.06-35.957h11.682l-5.059 35.957H85.432zm77.691-24.399l-4.275 10.655h5.891l-1.616-10.655zm-22.574 24.399l17.467-35.957h13.201l7.365 35.957h-11.594l-.852-4.791h-11.248l-2.588 4.791h-11.751zM114.725 97.656h14.636l10.03 16.612h-14.639l-10.027-16.612z" fill="#0d6fab"/>
          <path fill="#db8135" d="M116.246 95.104h15.129l13.139-16.54h-15.129l-13.139 16.54zM101.117 114.369h15.129l13.139-16.744h-15.129l-13.139 16.744z"/>
          <path fill="#0d6fab" d="M106.572 78.362h14.121l9.674 16.742h-14.121l-9.674-16.742zM42.257 79.8l-1.124 10.575c-4.306-5.939-14.284-1.841-15.068 5.558-.996 9.392 8.608 11.583 13.835 6.052l-1.127 10.6c-1.56.768-3.085 1.361-4.59 1.764a18.783 18.783 0 0 1-4.487.648c-1.872.039-3.567-.158-5.096-.588a12.436 12.436 0 0 1-4.134-2.002c-2.36-1.725-4.066-3.918-5.118-6.588-1.05-2.678-1.397-5.699-1.038-9.076.288-2.713.973-5.188 2.062-7.432 1.08-2.244 2.576-4.281 4.481-6.129 1.801-1.763 3.762-3.092 5.885-3.996 2.113-.895 4.421-1.373 6.915-1.425a17.085 17.085 0 0 1 4.37.46c1.425.341 2.831.873 4.234 1.579z"/></g></svg>


      <svg xmlns="http://www.w3.org/2000/svg" xmlns:xlink="http://www.w3.org/1999/xlink" width="2500" height="943" viewBox="0 0 737.863 278.44" id="svg-3" >
        <defs><path  d="M530.385 215.189c76.064 71.969 204.938 20.336 205.631-90.76-106.981-7.691-151.258 52.214-205.631 90.76z"/></defs>
        <clipPath id="b"><use xlink:href="#a" overflow="visible"/></clipPath>
        <path clip-path="url(#b)" fill-rule="evenodd" clip-rule="evenodd" fill="#33348e" d="M458.385 51.758h349.631v268.648H458.385V51.758z"/>
        <path d="M530.385 215.189c76.064 71.969 204.938 20.336 205.631-90.76-106.981-7.691-151.258 52.214-205.631 90.76z" fill="none" stroke="#fff" stroke-width="1.188" stroke-miterlimit="2.613"/>
        <path d="M526.617 208.02c.754.811 1.527 1.619 2.311 2.418 41.959-49.535 84.303-93.629 87.555-190.004 1.436-6.201-.08-13.058.936-19.815C681.302 3.6 735.315 57.838 735.825 123.623c-46.156-3.166-80.59 6.573-109.359 21.668-37.492 18.805-65.252 46.883-96.051 68.266a126.52 126.52 0 0 1-4.516-4.689c.24-.284.478-.567.718-.848z" fill-rule="evenodd" clip-rule="evenodd" fill="#cc2229" stroke="#fff" stroke-width="1.188" stroke-miterlimit="2.613"/>
        <path d="M531.045 210.543L701.432 38.698M529.9 211.371c23.336-25.16 97.604-107.907 105.561-209.148M654.279 7.4c-7.039 44.363-56.115 134.959-123.799 204.02m.317.4C570.08 170.637 646.016 83.735 670.578 13.974M531.773 211.109C559.602 185.896 667.75 61.352 686.758 25.087" fill="none" stroke="#fff" stroke-width="2.959" stroke-miterlimit="2.613"/>
        <path d="M532.123 211.225c29.447-24.412 98.623-94.775 201.422-104.799-102.799 10.024-171.975 80.386-201.422 104.799z" fill="none" stroke="#fff" stroke-width="3.019" stroke-miterlimit="2.613"/>
        <path d="M730.408 87.855c-44.156 6.131-130.924 56.067-200.184 124.62m-.376-.303c41.27-38.975 125.742-117.111 194.541-140.516M530.592 210.529c25.35-27.812 148.701-137.876 184.633-156.395M531.045 210.543L701.432 38.698" fill="none" stroke="#fff" stroke-width="2.959" stroke-miterlimit="2.613"/>
        <path d="M529.9 211.371c23.336-25.16 97.604-107.906 105.561-209.149-7.957 101.243-82.225 183.989-105.561 209.149z" fill="none" stroke="#fff" stroke-width="3.019" stroke-miterlimit="2.613"/>
        <path d="M654.279 7.4c-7.039 44.363-56.115 134.959-123.799 204.02m.317.4C570.08 170.637 646.016 83.735 670.578 13.974M531.773 211.109C559.602 185.896 667.75 61.352 686.758 25.087" fill="none" stroke="#fff" stroke-width="2.959" stroke-miterlimit="2.613"/>
        <path d="M532.123 211.225c29.447-24.412 98.623-94.775 201.422-104.799-102.799 10.024-171.975 80.386-201.422 104.799z" fill="none" stroke="#fff" stroke-width="3.019" stroke-miterlimit="2.613"/>
        <path d="M730.408 87.855c-44.156 6.131-130.924 56.067-200.184 124.62m-.376-.303c41.27-38.975 125.742-117.111 194.541-140.516M530.592 210.529c25.35-27.812 148.701-137.876 184.633-156.395" fill="none" stroke="#fff" stroke-width="2.959" stroke-miterlimit="2.613"/>
        <path d="M528.324 211.43C454.347 135.661 506.088 1.68 616.006.812c2.17 110.763-42.977 157.588-87.682 210.618z" fill-rule="evenodd" clip-rule="evenodd" fill="#33a457" stroke="#fff" stroke-width="1.188" stroke-miterlimit="2.613"/>
        <path d="M32.495 77.639h5.888c2.646 0 4.934-1.033 6.81-3.096 1.876-2.065 3.193-4.965 3.915-8.684.793-4.096.612-7.061-.531-8.881-1.155-1.834-3.444-2.752-6.846-2.752h-4.699l-4.537 23.413zm-7.328 37.828h6.265c3.133 0 5.647-.999 7.486-2.965 1.842-1.982 3.188-5.112 4.009-9.354.908-4.688.729-8.043-.503-10.043-1.249-1.999-3.808-3.013-7.643-3.013h-4.699l-4.915 25.375zM8.279 127.919l16.69-86.146h19.299c7.758 0 13.391 1.966 16.866 5.866 3.473 3.916 4.524 9.454 3.141 16.598-.832 4.292-2.39 8.061-4.672 11.288-2.285 3.244-5.402 6.046-9.292 8.373 3.495 2.031 5.85 4.75 7.028 8.142 1.198 3.392 1.303 7.683.306 12.827-1.524 7.865-4.558 13.682-9.063 17.416-4.526 3.752-10.797 5.637-18.771 5.637H8.279v-.001zm81.044-15.843l3.196-16.497c-5.156 2.734-8.856 5.291-11.036 7.618-2.201 2.343-3.635 5.193-4.279 8.519-.384 1.982-.322 3.522.155 4.588.479 1.065 1.381 1.605 2.641 1.605 1.513 0 3.145-.524 4.842-1.573 1.716-1.049 3.217-2.474 4.481-4.26zm-1.29 8.7c-2.543 2.54-5.232 4.521-8.02 5.898-2.787 1.376-5.517 2.081-8.145 2.081-3.619 0-6.192-1.212-7.706-3.622-1.511-2.424-1.832-5.88-.962-10.371 1.136-5.864 3.927-10.877 8.356-14.974 4.433-4.111 12.03-8.567 22.728-13.319l1.326-6.848c.368-1.901.275-3.375-.271-4.358-.548-.983-1.548-1.492-2.988-1.492-1.836 0-3.369.476-4.597 1.425-1.229.952-2.007 2.278-2.331 3.949l-.68 3.506h-13.16c.038-.196.073-.476.104-.819.034-.361.052-.638.09-.835 1.031-5.325 3.738-9.717 8.105-13.125 4.37-3.408 9.365-5.127 14.983-5.127 5.888 0 9.962 1.638 12.178 4.882 2.23 3.26 2.7 8.274 1.392 15.024l-5.25 27.097c-.824 4.26-1.437 7.979-1.834 11.142-.399 3.178-.547 5.521-.443 7.028H87.874c-.184-.82-.278-1.818-.243-2.932.04-1.132.15-2.541.384-4.212h.018v.002zm23.552 7.143L123.9 64.352h13.162l-1.353 6.979c2.869-2.541 5.731-4.489 8.545-5.817 2.814-1.326 5.429-1.999 7.821-1.999 3.042 0 5.166.934 6.316 2.802 1.168 1.867 1.399 4.669.677 8.405l-10.308 53.197h-13.033l9.291-47.954c.384-1.982.392-3.327.018-3.997-.374-.672-1.225-1.017-2.521-1.017-.954 0-2.25.458-3.824 1.343-1.576.885-3.135 2.049-4.607 3.426l-9.338 48.199h-13.161zm51.653-17.94l5.434-28.048c1.13-5.833 3.832-10.486 8.105-13.959 4.275-3.474 9.349-5.226 15.182-5.226 5.798 0 10.03 1.654 12.688 4.947 2.656 3.294 3.421 7.897 2.284 13.763l-.968 4.997h-13.358l.991-5.111c.514-2.654.436-4.572-.242-5.718-.678-1.148-2.004-1.737-3.948-1.737-2.054 0-3.64.573-4.745 1.721-1.123 1.146-1.947 3.08-2.461 5.734l-5.482 28.293c-.644 3.325-.663 5.651-.083 6.931.598 1.278 1.931 1.933 3.982 1.933 2.142 0 3.762-.557 4.818-1.639 1.056-1.081 1.957-3.505 2.678-7.225l.949-4.899h13.358l-1.017 5.244c-1.263 6.52-3.854 11.436-7.729 14.712-3.879 3.293-9.077 4.948-15.521 4.948-5.763 0-9.996-1.753-12.666-5.26-2.667-3.505-3.426-8.322-2.249-14.401zm60.552 3.048c-.336 1.735-.131 3.096.583 4.046.717.952 1.958 1.426 3.649 1.426 1.747 0 3.247-.491 4.441-1.458 1.214-.966 1.996-2.311 2.327-4.014l6.704-34.603c.267-1.375-.037-2.506-.916-3.357-.879-.853-2.198-1.295-3.89-1.295-1.567 0-2.927.427-4.065 1.278-1.137.853-1.863 2-2.13 3.375l-6.703 34.602zM216.989 78.9c.951-4.916 3.459-8.848 7.5-11.764 4.058-2.916 9.043-4.39 14.929-4.39 5.365 0 9.476 1.54 12.3 4.619 2.824 3.081 3.784 7.046 2.845 11.896l-6.357 32.815c-1.055 5.44-3.575 9.717-7.52 12.796-3.968 3.096-8.912 4.653-14.782 4.653-5.671 0-9.915-1.606-12.683-4.785-2.785-3.195-3.66-7.504-2.611-12.91l6.379-32.93zm91.776 36.928l7.675-39.614c-.798-.901-1.619-1.589-2.436-2.015a5.35 5.35 0 0 0-2.553-.672c-1.566 0-2.941.589-4.102 1.753-1.166 1.179-1.955 2.835-2.361 4.931l-6.36 32.833c-.381 1.966-.3 3.408.251 4.276.553.868 1.619 1.31 3.185 1.31a8.823 8.823 0 0 0 3.297-.656c1.055-.426 2.203-1.146 3.4-2.13l.004-.016zm-1.374 7.094c-2.077 1.982-4.253 3.457-6.489 4.408a17.925 17.925 0 0 1-7.082 1.425c-3.799 0-6.465-1.196-7.985-3.571-1.522-2.377-1.834-5.866-.953-10.422l6.833-35.272c1.007-5.194 2.855-9.158 5.507-11.878s6.05-4.096 10.155-4.096a11.1 11.1 0 0 1 5.646 1.523c1.766 1.017 3.35 2.507 4.721 4.44l5.368-27.706h13.033l-16.688 86.146h-13.035l.969-4.997zm39.743-9.895c-.337 1.735-.131 3.096.584 4.046.715.952 1.956 1.426 3.649 1.426 1.746 0 3.246-.491 4.44-1.458 1.214-.966 1.997-2.311 2.327-4.014l6.703-34.603c.268-1.375-.035-2.506-.916-3.357-.879-.853-2.196-1.295-3.889-1.295-1.566 0-2.928.427-4.065 1.278-1.136.853-1.863 2-2.13 3.375l-6.703 34.602zM340.333 78.9c.951-4.916 3.459-8.848 7.5-11.764 4.058-2.916 9.043-4.39 14.93-4.39 5.365 0 9.476 1.54 12.3 4.619 2.824 3.081 3.785 7.046 2.846 11.896l-6.359 32.815c-1.053 5.44-3.574 9.717-7.52 12.796-3.966 3.096-8.912 4.653-14.78 4.653-5.672 0-9.917-1.606-12.684-4.785-2.785-3.195-3.659-7.504-2.612-12.91l6.379-32.93zM9.743 229.67l16.69-86.146H39.52l8.551 51.48c.152.982.327 2.309.517 3.932.189 1.621.372 3.373.514 5.24.015-2.49.052-4.816.173-6.93.124-2.129.267-3.701.458-4.686l9.499-49.037h13.683L56.227 229.67H42.544l-8.584-47.594a6.75 6.75 0 0 1-.171-.885c-.592-3.262-.961-6.094-1.094-8.471-.08 3.014-.155 5.537-.254 7.535-.1 2-.241 3.475-.416 4.377L23.3 229.67H9.743zm75.153-14.893c-.337 1.736-.133 3.096.583 4.047.717.949 1.958 1.426 3.649 1.426 1.748 0 3.247-.492 4.442-1.459 1.213-.967 1.996-2.311 2.326-4.014l6.704-34.602c.266-1.377-.037-2.508-.916-3.359s-2.198-1.293-3.891-1.293c-1.566 0-2.926.424-4.064 1.277-1.137.852-1.864 1.998-2.13 3.375l-6.703 34.602zm-6.803-34.127c.953-4.916 3.461-8.848 7.501-11.764 4.058-2.916 9.042-4.391 14.929-4.391 5.365 0 9.476 1.541 12.301 4.619 2.822 3.08 3.784 7.047 2.843 11.896l-6.358 32.814c-1.053 5.439-3.573 9.715-7.519 12.797-3.968 3.096-8.912 4.652-14.782 4.652-5.671 0-9.915-1.605-12.684-4.783-2.783-3.195-3.659-7.504-2.612-12.91l6.381-32.93zm39.42 49.02l12.316-63.568h13.16l-1.672 8.635c2.253-3.082 4.688-5.424 7.297-6.998 2.609-1.57 5.408-2.357 8.324-2.357h1.313l-2.575 13.287a8.249 8.249 0 0 0-1.84-.623 11.915 11.915 0 0 0-2.263-.213c-3.349 0-6.191.918-8.47 2.736-2.3 1.834-3.756 4.342-4.372 7.52l-8.057 41.582h-13.161v-.001zm60.405-12.092l7.675-39.613c-.797-.902-1.619-1.59-2.436-2.018a5.368 5.368 0 0 0-2.553-.67c-1.567 0-2.941.59-4.102 1.752-1.166 1.18-1.954 2.834-2.36 4.932l-6.361 32.832c-.381 1.965-.3 3.408.251 4.275.552.869 1.619 1.312 3.185 1.312 1.117 0 2.241-.23 3.295-.656s2.204-1.146 3.402-2.131l.004-.015zm-1.374 7.096c-2.077 1.982-4.253 3.455-6.489 4.406s-4.597 1.426-7.081 1.426c-3.8 0-6.466-1.195-7.987-3.572-1.52-2.375-1.833-5.865-.951-10.42l6.833-35.273c1.008-5.193 2.855-9.158 5.507-11.879 2.652-2.719 6.051-4.096 10.156-4.096a11.1 11.1 0 0 1 5.646 1.523c1.765 1.018 3.349 2.508 4.721 4.441l5.368-27.707H205.3l-16.69 86.146h-13.033l.967-4.995zm44.637-35.16h11.396l1.245-6.422c.514-2.654.436-4.57-.242-5.719-.678-1.146-2.005-1.736-3.949-1.736-2.053 0-3.64.574-4.745 1.721-1.123 1.148-1.947 3.08-2.461 5.734l-1.244 6.422zm-17.715 22.215l5.524-28.521c1.068-5.506 3.777-10.012 8.104-13.484 4.328-3.475 9.421-5.227 15.218-5.227 5.941 0 10.198 1.621 12.745 4.832 2.566 3.211 3.269 7.85 2.101 13.879l-3.139 16.201h-24.753l-2.32 11.977c-.644 3.326-.664 5.652-.083 6.932.598 1.277 1.931 1.934 3.982 1.934 2.142 0 3.763-.559 4.819-1.639 1.056-1.082 1.957-3.508 2.678-7.227l.857-4.422h13.357l-.924 4.766c-1.263 6.521-3.854 11.436-7.729 14.715-3.879 3.293-9.077 4.947-15.522 4.947-5.798 0-10.049-1.754-12.703-5.242-2.656-3.494-3.397-8.308-2.212-14.421zm44.512.705l13.062-2.555c-.158 3.703.299 6.357 1.32 7.963 1.039 1.604 2.792 2.408 5.241 2.408 1.836 0 3.411-.51 4.684-1.508 1.278-1.016 2.099-2.377 2.43-4.08.637-3.293-2.863-7.996-10.51-14.057a1.709 1.709 0 0 0-.276-.246c-3.827-3.014-6.406-5.963-7.691-8.812-1.283-2.852-1.588-6.113-.889-9.717 1.006-5.193 3.582-9.387 7.727-12.566s9.098-4.768 14.806-4.768c5.365 0 9.418 1.475 12.161 4.408 2.74 2.947 3.829 6.994 3.235 12.107l-12.831 2.67c.053-2.686-.383-4.719-1.241-6.045-.877-1.328-2.278-2-4.151-2-1.728 0-3.213.508-4.398 1.523-1.206 1.018-1.974 2.375-2.303 4.08-.539 2.785 1.841 6.391 7.128 10.781 1.418 1.229 2.545 2.195 3.316 2.867 4.108 3.686 6.809 6.945 8.051 9.73 1.262 2.785 1.548 5.947.873 9.436-1.017 5.244-3.615 9.455-7.771 12.602-4.171 3.145-9.197 4.734-15.03 4.734-5.58 0-9.902-1.672-12.913-4.998-3.006-3.342-4.356-7.994-4.031-13.943l.001-.014zm52.08 3.834l7.803-40.27h-8.048l1.917-9.896h8.047l3.542-18.285h12.962l-3.542 18.285h9.686l-1.916 9.896h-9.687l-7.582 39.139c-.354 1.82-.133 3.195.665 4.096.794.918 2.146 1.377 4.018 1.377.433 0 1-.049 1.631-.148.65-.096 1.452-.244 2.354-.441l-1.936 10.371a25.24 25.24 0 0 1-3.823.77 33.42 33.42 0 0 1-3.915.23c-5.042 0-8.595-1.262-10.613-3.77-2.013-2.522-2.541-6.308-1.563-11.354zm49.438-26.754h11.396l1.244-6.422c.514-2.654.436-4.57-.242-5.719-.678-1.146-2.005-1.736-3.949-1.736-2.053 0-3.64.574-4.744 1.721-1.123 1.148-1.947 3.08-2.461 5.734l-1.244 6.422zm-17.717 22.215l5.526-28.521c1.067-5.506 3.776-10.012 8.104-13.484 4.327-3.475 9.42-5.227 15.218-5.227 5.941 0 10.198 1.621 12.745 4.832 2.564 3.211 3.268 7.85 2.1 13.879l-3.141 16.201h-24.752l-2.32 11.977c-.644 3.326-.664 5.652-.083 6.932.598 1.277 1.931 1.934 3.982 1.934 2.144 0 3.763-.559 4.819-1.639 1.056-1.082 1.957-3.508 2.678-7.227l.857-4.422h13.358l-.924 4.766c-1.264 6.521-3.854 11.436-7.729 14.715-3.879 3.293-9.077 4.947-15.522 4.947-5.798 0-10.049-1.754-12.704-5.242-2.656-3.494-3.397-8.308-2.212-14.421z" fill-rule="evenodd" clip-rule="evenodd" fill="#cc2229" stroke="#cc2229" stroke-width=".157" stroke-miterlimit="2.613"/><path fill="none" stroke="#cc2229" stroke-width="10.997" stroke-miterlimit="2.613" d="M0 272.941h737.863"/></svg>


<svg xmlns="http://www.w3.org/2000/svg" xml:space="preserve" width="1000px" height="179px" version="1.1" style="shape-rendering:geometricPrecision; text-rendering:geometricPrecision; image-rendering:optimizeQuality; fill-rule:evenodd; clip-rule:evenodd"
viewBox="0 0 550 98"
xmlns:xlink="http://www.w3.org/1999/xlink" id="svg-4">
<defs>
<style type="text/css">
 <![CDATA[
  .fil0 {fill:#EC1B23}
 ]]>
</style>
</defs>
<g id="Camada_x0020_1">
<metadata id="CorelCorpID_0Corel-Layer"/>
<g id="_563049382448">
 <path class="fil0" d="M54 82c-4,-10 -5,-10 -11,-18l-11 -17c-55,14 -33,52 24,51 51,0 78,-37 21,-51 -3,-10 1,-9 -11,-24 -10,-13 -7,-9 -10,-20l-2 -3c-16,31 30,41 12,64l-1 -4c0,-1 0,-1 -1,-3 -1,-4 -7,-12 -10,-15 -14,-15 -8,-18 -12,-22 -3,6 -5,9 -3,18 4,14 21,21 19,38 -1,4 -2,5 -4,6z"/>
 <path class="fil0" d="M449 83c-12,10 -23,2 -23,-13 -1,-16 11,-21 23,-13l0 26zm0 -32c-9,-2 -14,-4 -22,1 -24,15 -6,55 21,37 1,1 2,3 4,4 9,-4 14,-3 14,-8 -7,3 -8,-1 -8,-8l0 -59c-4,0 -13,4 -16,6 5,5 7,-2 7,11 0,5 0,11 0,16z"/>
 <path class="fil0" d="M135 91c14,3 28,4 37,-5 4,-4 6,-12 4,-19 -4,-11 -20,-14 -27,-20 -12,-8 -2,-26 14,-17 9,5 6,11 10,13 3,-3 2,-12 1,-16 -14,-3 -29,-5 -36,6 -4,5 -4,12 -1,18 3,6 7,7 13,10 6,3 12,5 15,9 5,6 3,12 -2,16 -4,4 -11,4 -17,1 -2,-1 -4,-3 -6,-5 -2,-4 -1,-6 -5,-8l0 17z"/>
 <path class="fil0" d="M376 59c8,-5 18,-8 18,6 2,31 -2,21 -6,27 3,1 19,1 22,0 -4,-7 -6,3 -6,-15 0,-5 0,-15 -1,-19 -4,-14 -19,-9 -26,-3 -2,-4 1,-3 -2,-6 -4,2 -12,4 -15,7l7 2 -1 31c-3,1 -4,0 -6,3 3,1 20,1 23,0 -7,-9 -7,9 -7,-33z"/>
 <path class="fil0" d="M246 88c-1,-5 -1,-17 -1,-24 0,-8 7,-10 14,-8 6,2 5,11 5,19 0,12 1,12 -4,15l-3 2c4,1 19,1 22,0 -2,-3 -4,-1 -6,-5 -1,-3 1,-21 -1,-28 -3,-13 -18,-12 -25,-4 0,0 -1,-1 -1,-1 0,0 0,0 0,-1l-1 -4c-4,1 -13,4 -16,7 3,2 5,0 7,4l-1 29c-3,1 -4,1 -6,3 3,1 20,1 23,0l-3 -2c-1,-1 -3,-1 -3,-2z"/>
 <path class="fil0" d="M209 84c-10,10 -26,-7 1,-13 0,4 1,10 -1,13zm11 2c-2,-9 2,-24 -3,-31 -4,-7 -14,-7 -22,-3 -10,7 -6,16 -2,13 5,-2 1,0 3,-6 2,-8 15,-9 14,7 -9,4 -22,6 -23,15 -2,14 15,14 22,8l4 4c0,-1 0,0 0,0l12 -4c3,-2 0,0 2,-3l-7 0z"/>
 <path class="fil0" d="M340 85c-2,1 -5,3 -9,2 -4,-1 -14,-11 10,-17l-1 15zm-20 -19c9,-2 5,-1 6,-7 2,-8 15,-10 14,6 -7,6 -22,6 -23,16 -2,16 15,12 23,8l3 4c4,-1 13,-4 15,-7 -2,-1 -4,0 -8,0 -2,-13 4,-30 -8,-36 -6,-3 -26,0 -22,16z"/>
 <path class="fil0" d="M481 64c2,-14 18,-15 22,0l-22 0zm29 19c-16,7 -29,7 -30,-15l31 0c1,-24 -35,-25 -40,-2 -7,34 40,31 39,17z"/>
 <path class="fil0" d="M279 54l9 0c1,9 -1,27 3,33 7,11 20,3 22,-3 -13,3 -19,4 -15,-30 6,0 11,2 14,-3 -3,-2 -8,-1 -15,-1l0 -14c-3,2 -5,8 -8,10 -3,3 -8,4 -10,8z"/>
 <path class="fil0" d="M533 88c-2,-11 -3,-43 15,-30 1,1 0,1 2,2l0 -10c-8,-2 -13,-1 -16,5l-1 -1c0,-1 0,-1 0,-1l-1 -4c-3,1 -5,2 -8,3l-6 3c0,0 -1,1 -1,1 2,1 3,0 5,2 3,2 2,28 2,28 -2,6 -3,1 -7,6 4,1 19,1 22,0 -1,-2 -3,-2 -6,-4z"/>
</g>
</g>
</svg>


    <svg viewBox="0 0 128 128" height="100%" width="100%" pointer-events="none" display="block" id="svg-5" >
        <path fill="#FFFF8D" d="M0 0h128v128H0z"/>
        <path fill="#C2C2C2" d="M51.7 31.4v-22s-19.6 2.5-15.8 29.9c11 0 14.8-4.3 15.8-7.9z"/>
        <path fill="#848484"
              d="M94.1 39.8c.1-1 0-2-.1-3 0-1-.1-1.9-.2-2.9-.2-1.8-.4-3.5-.8-5.2-.6-2.9-1.5-5.8-2.9-8.4-1.1-2.2-2.6-4.2-4.3-6-1.6-1.6-3.3-2.9-5.3-3.9-1.8-1-3.8-1.7-5.8-2.2-2-.5-4-.8-6-.9-1.9-.1-3.8-.1-5.7 0-1.7.1-3.3.3-5 .6-1.3.2-2.5.5-3.8.8l-2.2.6-.4.1v20.8c0 1-.1 1.8.4 2.7.2.3.5.6.6.9.3.9.7 1.8 1.2 2.7 1.1 1.8 2.7 3.4 4.7 4.3 2.4 1.1 5.1 1.4 7.8 1.6 4.8.3 9.6.4 14.3.3 2.2 0 4.3-.3 6.4-.9 1.2-.3 2.4-.6 3.6-1 .6-.2 1.2-.4 1.8-.5.6-.2 1.2-.5 1.7-.5z"/>
        <path fill="#FFE0B2"
              d="M66.8 116.8l17.9-8.7 3.1-8.2c-15.1-17 1.2-31.6 2.3-32.5h.1l13.2-11.1c1.5-1.2 2.5-3 2.8-5 .6-4.4-2.5-8.4-6.9-9.1-1.5-.2-3 0-4.3.6-.2-1-.5-1.9-.8-2.9-26.9 3.7-37.9-2.5-42.4-8.4-1.6 2.6-5.1 6.1-15.8 7.9-.2.9-.5 2-.8 3.1-1.2-.4-2.4-.6-3.8-.4-4.4.6-7.5 4.7-6.9 9.1.3 2 1.3 3.8 2.8 5l7.5 6.4c4.2 4.5 18.4 21.7 9 37l.7 3.7 4.7 4.6 17.6 8.9z"/>
        <path fill="#055524" d="M39.8 104.7zm54.3-.4l-.8 1.5-6.8 12.1V128H128v-2.3z"/>
        <path fill="#FFE0B2" d="M40.4 103.9c-.2.2-.3.4-.5.5 0 0-.1.1-.1.2v.1l.6-.8z"/>
        <circle fill="#444" cx="80" cy="51.7" r="2"/>
        <circle fill="#444" cx="54.3" cy="51.7" r="2"/>
        <path fill="#055524"
              d="M39.8 104.7c-3.2.9-6.1 2.7-8.6 5.5l-.2.2s-.5.6-1.5 1.7c-.9 1.1-2.2 2.6-3.7 4.5-2.3 2.9-5.1 6.7-8.3 11.4h31v-7.8l-8.7-15.5z"/>
        <path fill="#848484" d="M65.3 67.3s2.7 9.8 14.5 9.8c0 0 3.9-18.5-14.5-18.5v8.7z"/>
        <path fill="#C2C2C2" d="M65.3 67.3v-8.7C46.9 58.6 50.8 77 50.8 77c11.8 0 14.5-9.7 14.5-9.7z"/>
        <path fill="#A7FFEB" d="M80.9 128h5.6v-10.1zm-21 0h13.8l-6.9-10zm-11.5 0h4.3l-4.3-7.8z"/>
        <path fill="#1DE9B6"
              d="M66.8 118l-.5-.8.5-.4-22.9-17.3h-.1l-3.4 4.4-.6.8 8.6 15.5 4.3 7.8h7.2zm26.5-12.2l.8-1.5-6.4-4.4-20.9 16.9-.5.4.5.8 6.9 10h7.2l5.6-10.1z"/>
    </svg>
    <svg viewBox="0 0 128 128" height="100%" width="100%" pointer-events="none" display="block" id="svg-6" >
        <path fill="#FF8A80" d="M0 0h128v128H0z"/>
        <path fill="#F2A600"
              d="M30.3 43.7c3.1-.4 6.1 1 7.7 3.4 10.3-2 11-11.5 12.6-14.1 4.5 5.8 13.3 17.8 39.5 14.5 1.6-2.7 4.7-4.3 8-3.8.4 0 .7-1.9 1-1.8-.1-2.2-.3-4.4-.8-6.4v-.1C94.9 19.6 80.8 7.8 64 7.8c-15 0-27.8 9.4-32.8 22.6C29.8 34 29 38 28.9 42.1l.7 1.8.7-.2z"/>
        <path d="M89.1 102.8l.4-.3c-.1 0-.3.1-.4.3zm2.2-1.9l-.5.4c.2-.2.3-.3.5-.4zm-18 9.2c-.1 0-.2 0-.3.1.1-.1.2-.1.3-.1zm-2.4.4h-.2.2zm16.1-6.2l.3-.2-.3.2zm-9 4.5l.5-.2-.5.2zm4.9-2.1l.2-.1c-.1.1-.1.1-.2.1zm2-1.1l.5-.3-.5.3zm-4.6 2.3l.4-.2c-.1.1-.2.2-.4.2zm12.6-8.6zM30.3 41.7c-.3 0-.5.1-.7.1.2 0 .5 0 .7-.1zm35.9 69.2c-.6 0-1.2 0-1.9-.1.6 0 1.2.1 1.9.1z"
              fill="none"/>
        <path fill="#F2A600"
              d="M41.5 101.3l.8.7c-.3-.3-.5-.5-.8-.7zm1.4 1.1c.2.2.5.4.8.6-.3-.2-.6-.4-.8-.6zm1.3 1.1c.2.2.5.4.8.5-.2-.1-.5-.3-.8-.5zm54.1-68.1zM38.7 98.3c.4.4.8.8 1.1 1.3-.4-.4-.8-.8-1.1-1.3zm-7.6-67.9zm15.4 74.7l.5.3-.5-.3zm4.6 2.4l.3.1c-.1 0-.2 0-.3-.1zm-3.1-1.6l.5.3c-.2-.1-.4-.2-.5-.3zm13.6 4.6l-.9-.1.9.1zM88.9 67c-1.6 1.4-3.1 2.7-4.4 3.9-3.3 3.8-6.3 10.3-1 18.7 5.7-8.1 10.6-17.7 13.2-29.1L88.9 67zM41 100.8l-.8-.8.8.8zm8.5 6l.4.2c-.1-.1-.2-.2-.4-.2zm9.5 3.3h.1-.1zm-46.1 17.3c4.5-7.1 8.6-12.7 11.7-16.6 1.5-2 2.8-3.5 3.7-4.5 1-1.1 1.5-1.7 1.5-1.7l.2-.2c2.4-2.7 5.3-4.5 8.4-5.4.1-.2.2-.4.2-.5 0-.1 0-.2.1-.2 13.6-13.3 4.7-26.5-1.5-32.9l-4.4-3.8c-2.6 8.7-8.5 18.2-20.1 26.9-6.4 4.1-10.6 11.4-10.6 19.7 0 8.2 4.1 15.4 10.4 19.8l.4-.6z"/>
        <path fill="#FFE0B2"
              d="M67.1 110.9h-2 2zM38.8 98.1c-.4.3 2.1 5.6 2.5 5.9 1.8 1.8 4.1 2.2 6.3 3.5 4.8 2.7 10.2 3.6 15.6 4.2 5.7.6 11.5-.5 16.8-2.6 2.5-1 4.8-2.3 7-3.8 1.2-.8 2.2-1.6 3.3-2.6.4-.3 2.4-3.6 2.7-3.3-4-3.3-8-6.9-10.4-11.6-2.2-4.2-2.6-9.1-.5-13.4 1.7-3.3 4.5-5.6 7.3-7.9 2.2-1.8 4.3-3.6 6.5-5.5l4.7-3.9c1-.8 2.1-1.6 2.8-2.7 1.5-2 1.9-4.6 1.2-7-1.4-4.8-7.1-7.2-11.5-4.9-1 .5-1.9 1.3-2.6 2.2l-.5.7-1.1.1c-.8.1-1.6.2-2.4.2-2.6.2-5.3.3-7.9.1-6.8-.3-13.5-2.1-19.1-6-3.6-2.4-6.3-5.6-8.9-9-.5.9-.8 1.9-1.1 2.8-.5 1.4-1 2.7-1.6 4-1.7 3.3-4.5 5.8-8.2 6.9-.5.2-1.1.3-1.7.4-.3-.5-.7-.9-1.1-1.3-.9-.6-2.1-1.3-3.3-1.6-2.5-.7-5.2-.2-7.2 1.4-3.9 3.1-4 9.2-.1 12.5l10.5 8.9c2.4 2 4.3 4.8 5.9 7.4 2.1 3.5 3.4 7.6 3.2 11.7-.3 5.6-3.3 10.4-7.1 14.2-.1.1 13.6-13.3 0 0z"/>
        <path fill="#80DEEA"
              d="M93 99.4l-.2-.1-1.5 1.5-.5.4c-.4.4-.9.8-1.3 1.1l-.4.3c-.6.5-1.2.9-1.8 1.3l-.3.2c-.5.4-1.1.7-1.6 1l-.5.3-1.8 1-.2.1c-.7.4-1.4.7-2.1 1l-.4.2-1.8.7-.5.2c-.8.3-1.5.5-2.3.7l-2.4.6c-.1 0-.2 0-.3.1l-2.1.4h-.2c-1.5.2-3 .3-4.5.4h2-1.9c-.6 0-1.2 0-1.9-.1l-2.7-.3-.9-.1-1.6-.3h-.1c-2.7-.6-5.2-1.4-7.6-2.4l-.3-.1c-.4-.2-.8-.4-1.2-.5l-.4-.2c-.4-.2-.7-.4-1-.5l-.5-.3-1-.6-.5-.3c-.5-.3-1-.6-1.5-1-.3-.2-.5-.4-.8-.5l-.6-.5-.8-.6-.6-.5c-.3-.2-.5-.4-.8-.7l-.5-.5-.8-.8-.4-.4c-.4-.4-.8-.8-1.1-1.3-.1.2-.2.4-.2.5-3.1.9-6 2.7-8.4 5.4l-.2.2s-.5.6-1.5 1.7c-.9 1.1-2.2 2.6-3.7 4.5-3.1 3.9-7.2 9.5-11.7 16.6-.1.2-.2.4-.4.6H118c-2.7-5.4-5.1-9.8-7.1-13.1-1.3-2.2-2.3-3.9-3.1-5.1-.9-1.3-1.3-2-1.3-2l-.2-.3c-.6-.9-1.2-1.7-1.9-2.4-3.3-3.3-7.4-5.2-11.4-5.5z"/>
        <circle fill="#444" cx="78.9" cy="51.3" r="2"/>
        <circle fill="#444" cx="53.2" cy="51.3" r="2"/>
    </svg>
    <svg viewBox="0 0 128 128" height="100%" width="100%" pointer-events="none" display="block" id="svg-7"  >
        <path fill="#FFCC80" d="M41.6 123.8s0 .1-.1.1l.3-.4c-.1.2-.1.2-.2.3z"/>
        <path fill="#80D8FF" d="M0 0h128v128H0z"/>
        <path fill="#5D4037"
              d="M29.3 123.1c4.1-6.9 7.8-12.4 10.5-16.2 1.4-1.9 2.5-3.4 3.3-4.4l1.7-2s0-.1.1-.1l.3-.3C49 95.4 51.9 91 54.1 87c9.5-17.8 6.1-29.3-.3-35.9-1.6-1.6-3.2-2.9-4.7-4-.9-.6-1.7-1.1-2.4-1.6-1.8-1-3.1-1.6-3.3-1.7-1.3-1.2-2.2-2.9-2.5-4.9-.5-4.3 2.2-6.2 6.1-6.8 1-.1 2-.1 2.9.2 9.6-1.8 11.9-8 13.3-10.6 4 5.7 13.9 9.8 38 6.1C97.1 14.3 84.5 5.4 71 7.4c-4.4.7-8.3 2.4-11.8 4.9l-.1.1c-1.1.8-2.1 1.6-3 2.6l-35 30C12.9 49.8 7.3 58.8 7.3 69.1c0 2.7.4 5.3 1.1 7.8.3 4.9-.1 11.7-2.9 18.6-.2.5-.5 1-.7 1.6-1.2 3.2-1.9 6.6-1.9 10.2 0 8.2 3.5 15.6 9.1 20.7h14.5c1-1.7 1.9-3.4 2.8-4.9zm20.5-90.8z"/>
        <path fill="#FFCC80"
              d="M63.1 19.8c-1.4 2.6-5.7 8.8-15.3 10.6-.9-.3-1.9-.3-2.9-.2-3.9.6-6.7 4.5-6.1 8.8.3 2 1.2 3.7 2.5 4.9.2.1 1.5.6 3.3 1.7.7.4 1.6 1 2.4 1.6 1.5 1.1 3.1 2.4 4.7 4 6.4 6.6 11.8 18.1 2.3 35.9 0 0 7.3 15.5 23.2 16.9 6.1.5 13.3-5.6 22.1-8.8-.1-.7-.3-1.4-.5-2.1-.3-1.3-3.9-21.5-4.1-28.2-.2-7.4.7-11.9 1.9-14.8h8.8L103 39.7c-.2-2.4-.4-4.7-.7-6.7-.2-1.8-.6-3.5-1.1-5.2-24.2 3.7-34-2.3-38.1-8zm22.3 19.6c0-.9.7-1.6 1.6-1.6.9 0 1.6.7 1.6 1.6 0 .9-.7 1.6-1.6 1.6-.9 0-1.6-.7-1.6-1.6zm-35.6-7.1zm-4.9 68.1s0 .1-.1.1l.3-.4-.2.3z"/>
        <circle fill="#444" cx="86.9" cy="39.4" r="2"/>
        <path fill="#00BFA5"
              d="M77.2 98.5C61.3 97.2 54.1 87 54.1 87c-2.2 4-5.1 8.4-8.9 13.1l-.3.4c-.5.7-1.1 1.3-1.7 2-.8 1-2 2.5-3.3 4.4-2.8 3.8-6.5 9.2-10.5 16.2-.9 1.6-1.8 3.2-2.8 4.9h80.8l-.3-1c-2.6-10.3-5.4-21.4-7.7-31.9-8.8 3.1-16.1 3.9-22.2 3.4z"/>
    </svg>


        <svg xmlns="http://www.w3.org/2000/svg" width="2026" height="2500" viewBox="0 0 306.949 378.806"  id="svg-8"><g fill-rule="evenodd" clip-rule="evenodd"><path d="M0 0h306.064v303.923H179.477v-125.91H151.73v125.91h-14.74v-85.964h-13.871v85.964H0V0zm10.402 105.94c16.182-7.233 32.366-14.47 48.555-21.709 64.99-90.722 149.417-56.375 179.477-13.025C168.49 26.343 116.755 49.211 91.038 79.89c196.535-20.414 245.667 99.419 139.592 143.277 93.926-75.547-25.436-137.2-149.995-131.122-29.922 55.282-20.1 96.095 7.801 132.858C58.352 201.839 38.4 168.129 54.622 96.387c-14.741 3.187-29.482 6.37-44.22 9.553z" fill="#cc2229"/><path d="M48.053 336.536h11.612l.233 4.531c3.362-5.108 8.038-6.91 14.026-5.418-.461 4.252-.925 8.509-1.389 12.765-5.94-2.428-9.66.602-11.909 6.872l.045.838.003 21.744H48.053v-41.332zM4.039 322.627v54.853c6.858.027 13.72.059 20.582.09 21.558.563 21.527-22.287 9.251-28.41 11.482-6.043 8.749-26.487-9.083-26.498-6.92.093-13.837-.124-20.75-.035zm13.407 11.035h5.483c6.514.619 6.205 10.151 0 10.571h-5.483v-10.571zm0 21.559h5.923c7.037.674 6.704 11.042 0 11.499h-5.923v-11.499zM141.789 321.139h12.623v56.52h-11.74v-5.421c-13.098 13.503-26.832 2.698-27.271-16.075.701-17.24 12.379-26.831 26.388-15.931v-19.093zm-6.755 25.666c3.582 0 6.501 4.6 6.501 10.244 0 5.642-2.919 10.241-6.501 10.241s-6.501-4.6-6.501-10.241c0-5.645 2.919-10.244 6.501-10.244zM79.116 338.723c.058 3.301.121 6.604.186 9.911 8.316-4.668 18.388-5.436 18.416 2.843-13.555-1.104-22.603 2.393-22.465 14.572.117 10.465 12.476 16.43 23.016 7.546.058 1.345.12 2.692.182 4.04 3.816.027 7.636.058 11.455.089.365-12.757.378-22.912-.663-30.06-3.526-11.918-12.784-15.521-30.127-8.941zm18.601 20.922c-.22 4.318-1.337 7.134-3.603 8.172-4.136 1.888-8.997-1.812-5.841-5.831 1.393-1.778 4.559-2.854 9.444-2.341z"/><path d="M172.467 361.601c7.824.083 15.652.165 23.483.251 2.146-15.047-5.934-26.298-17.044-26.553-23.246-1.809-26.928 41.937-.127 43.497 4.878-.017 9.756-.715 14.645-2.402-.128-3.837-.255-7.673-.379-11.506-13.492 8.226-19.688 1.828-20.578-3.287zm-.251-9.231l12.497.252c-.3-10.355-11.937-9.382-12.497-.252zM225.999 348.957c.461-3.792.925-7.587 1.39-11.382-16.615-5.772-27.158 1.303-27.526 10.622-.127 15.05 18.437 10.997 16.666 18.333-3.465 3.961-9.271 1.389-15.149-1.771-.375 3.875-.754 7.753-1.135 11.634 15.789 4.345 26.725 2.641 29.035-9.863 1.506-16.759-17.075-12.898-16.918-19.093.13-3.156 7.707-3.665 13.637 1.52zM261.855 349.08c.25-3.791.501-7.583.756-11.378-13.864-6.026-30.19.588-30.173 19.726.519 18.109 15.597 25.26 30.678 19.344-.172-4.005-.34-8.01-.505-12.012-8.791 6.985-16.742 1.255-17.045-7.714-.247-7.46 4.927-14.669 16.289-7.966zM287.61 335.554c-12.39.412-20.173 6.28-20.451 21.874.072 10.412 5.201 21.481 20.324 21.241 9.13.671 20.031-6.112 19.443-21.496-.477-10.592-4.64-21.118-19.316-21.619zm-.567 10.367c3.72 0 6.752 4.913 6.752 10.939 0 6.022-3.032 10.936-6.752 10.936-3.727 0-6.759-4.913-6.759-10.936 0-6.026 3.032-10.939 6.759-10.939z"/></g></svg>


      <svg xmlns="http://www.w3.org/2000/svg" width="2500" height="2500" viewBox="0 0 192.744 192.744" id="svg-0">
        <g fill-rule="evenodd" clip-rule="evenodd"><path fill="#fff" d="M0 0h192.744v192.744H0V0z"/><path fill="#db812e" d="M9.432 8.496v175.752h173.88V8.496H9.432z"/><path d="M49.113 25.596h94.518c6.578 0 12.074 2.342 16.58 6.848 4.684 4.595 7.027 10.182 7.027 16.759v94.428c0 6.488-2.344 12.074-7.027 16.67-4.506 4.504-10.002 6.848-16.58 6.848H49.113c-6.578 0-12.164-2.344-16.759-6.848-4.506-4.596-6.848-10.182-6.848-16.67V49.203c0-6.577 2.342-12.164 6.848-16.759 4.595-4.506 10.181-6.848 16.759-6.848z" fill="#33348e"/><path d="M133.721 105.879h7.658l9.461-9.553h-10.363l-6.756 9.553zm-2.795 2.432h-10.992v20.453c0 5.496 1.441 9.551 4.055 12.254 2.434 2.344 5.496 3.424 9.461 3.424 5.496 0 9.551-2.162 12.074-6.396h.09v5.586h9.73v-35.32h-10.992v20.635c0 .9-.09 1.711-.27 2.162-1.262 2.973-3.424 4.594-6.758 4.594-4.234 0-6.398-2.973-6.398-8.83v-18.562zm-28.201 11.712c-7.208 0-12.705 1.082-16.489 3.424-3.875 2.344-5.947 5.857-5.947 10.363 0 2.793 1.171 5.314 3.154 7.387 2.342 2.164 5.316 3.244 8.92 3.244 4.866 0 8.47-1.531 10.993-4.504h.27v3.693h10.092v-20.814c0-4.684-1.262-8.289-3.604-10.902-2.885-2.973-7.119-4.594-12.705-4.594-5.767 0-10.632 1.08-14.417 3.424l2.072 6.938c3.063-1.893 6.578-2.793 10.452-2.793 4.865 0 7.208 1.531 7.208 4.775v.359h.001zm-26.762-11.712h-6.758V96.326H58.574v11.984h-5.046v8.109h5.046v14.236c0 4.865.901 8.469 2.974 10.541 1.982 2.164 4.955 3.244 8.56 3.244 2.343 0 4.235-.27 5.947-.9l-.09-8.289c-.36.27-.991.449-2.072.449-1.712 0-2.974-.631-3.784-1.891-.631-.902-.901-2.523-.901-4.865V116.42h6.758v-8.109h-.003zm14.507 24.597c0-4.234 4.235-6.127 12.524-6.037v3.785l-.09 2.072c-.451 1.352-1.441 2.523-2.703 3.244-1.262 1.08-2.793 1.621-4.505 1.621-3.424.001-5.226-1.62-5.226-4.685zM37.219 96.326v47.305h11.173V96.326H37.219z" fill="#fff22d"/></g></svg>

    <svg viewBox="0 0 128 128" height="100%" width="100%" pointer-events="none" display="block" id="svg-9"  >
        <path fill="#FFCC80" d="M41.6 123.8s0 .1-.1.1l.3-.4c-.1.2-.1.2-.2.3z"/>
        <path fill="#FFFF8D" d="M0 0h128v128H0z"/>
        <path fill="#C2C2C2"
              d="M83.2 26.6c.1-.9.2-1.8.2-2.7C83.4 13.5 75 5 64.6 5s-18.8 8.4-18.8 18.8c0 1.4.2 2.7.4 4 5.4-4 12.2-6.4 19.4-6.4 6.5.1 12.5 2 17.6 5.2z"/>
        <path fill="#848484"
              d="M41.4 58.4c9.6-1.9 10.3-10.7 11.7-13.2 4.2 5.4 12.4 16.6 36.8 13.5 1.5-2.5 4.4-6 7.4-5.6.3 0 .6.1 1 .2C98 42 92 32.1 83.1 26.5 78 23.3 72 21.4 65.6 21.4c-7.3 0-14 2.4-19.4 6.4-7.9 5.9-13.1 15.2-13.3 25.7.4-.1.9 1.7 1.4 1.7 2.8-.4 5.6 1 7.1 3.2z"/>
        <path fill="#FF5722"
              d="M109.6 121.5c-1.2-2-2.2-3.6-2.9-4.8l-1.2-1.8-.2-.3c-.5-.8-1.1-1.6-1.8-2.3-3.1-3.3-6.9-5.1-10.8-5.3 0 0 .1 0 .1.1l-.2-.1c-3.4 3.7-7.8 6.6-12.7 8.5V128h33.4c-1.4-2.5-2.6-4.7-3.7-6.5zM42 106l-.2.5c-2.9.8-5.6 2.5-7.8 5.1l-.2.2s-.5.6-1.4 1.6c-.9 1-2 2.4-3.5 4.2-2.1 2.6-4.7 6.1-7.5 10.4h28v-15.7c-2.8-1.7-5.3-3.8-7.4-6.3z"/>
        <path fill="#E0F7FA" d="M67.7 117.7c-6.8-.2-13.1-2.1-18.3-5.4V128h30.5v-12.6c-3.8 1.4-7.9 2.2-12.2 2.3z"/>
        <path fill="#FFE0B2"
              d="M42 106c2.1 2.4 4.6 4.5 7.4 6.3 5.2 3.3 11.5 5.3 18.3 5.4 4.3-.1 8.4-.9 12.1-2.3 5-1.9 9.3-4.8 12.7-8.5l.2.1s-.1 0-.1-.1c-15.7-12.3-12-21.7-7.8-26.6 1.3-1.1 2.6-2.3 4.1-3.6l12.2-10.3c1.4-1.2 2.4-2.8 2.7-4.8.5-3.8-1.9-7.3-5.4-8.2-.3-.1-.6-.2-1-.2-3.1-.4-5.9 1.1-7.4 3.6-24.4 3.1-32.7-8.1-36.8-13.5-1.5 2.4-2.1 11.3-11.7 13.2-1.6-2.3-4.3-3.6-7.2-3.2l-1.4.3c-3.4 1.1-5.5 4.5-5 8.1.3 1.9 1.3 3.6 2.6 4.7l10.2 8.7c5.8 6 14.1 18.3 1.4 30.7-.1.1-.1.2-.1.2zm37.6-45.3c.8 0 1.5.7 1.5 1.5s-.7 1.5-1.5 1.5-1.5-.7-1.5-1.5c-.1-.9.6-1.5 1.5-1.5zm-24 0c.8 0 1.5.7 1.5 1.5s-.7 1.5-1.5 1.5-1.5-.7-1.5-1.5c-.1-.9.6-1.5 1.5-1.5z"/>
        <circle fill="#444" cx="79.6" cy="62.2" r="2"/>
        <circle fill="#444" cx="55.6" cy="62.2" r="2"/>
    </svg>
    </defs>
</svg>
